# Blender 5.1.1
# www.blender.org
mtllib note.mtl
o wall-window-cutout-large
v -0.060000 -0.000000 -0.300000
v 0.060000 -0.000000 -0.300000
v -0.060000 0.200000 -0.300000
v 0.060000 0.200000 -0.300000
v 0.060000 0.000000 0.300000
v -0.060000 0.000000 0.300000
v 0.060000 0.200000 0.300000
v -0.060000 0.200000 0.300000
v -0.060000 0.040000 0.180000
v 0.060000 0.040000 0.180000
v -0.060000 0.160000 0.180000
v 0.060000 0.160000 0.180000
v 0.060000 0.160000 -0.180000
v -0.060000 0.160000 -0.180000
v 0.060000 0.040000 -0.180000
v -0.060000 0.040000 -0.180000
vn -0.3015 0.9045 -0.3015
vn 0.3015 -0.9045 -0.3015
vn -0.3015 -0.9045 -0.3015
vn 0.3015 0.9045 -0.3015
vn 0.3015 0.9045 0.3015
vn -0.3015 -0.9045 0.3015
vn 0.3015 -0.9045 0.3015
vn -0.3015 0.9045 0.3015
vn -0.6883 -0.6882 -0.2294
vn 0.6883 0.6882 -0.2294
vn -0.6882 0.6883 -0.2294
vn 0.6882 -0.6883 -0.2294
vn 0.6883 -0.6882 0.2294
vn -0.6882 -0.6883 0.2294
vn -0.6883 0.6882 0.2294
vn 0.6882 0.6883 0.2294
vt 0.468750 0.225000
vt 0.468750 0.025000
vt 0.468750 0.185000
vt 0.468750 0.065000
s 1
usemtl colormap
f 3/1/1 2/2/2 1/2/3
f 2/2/2 3/1/1 4/1/4
f 7/1/5 6/2/6 5/2/7
f 6/2/6 7/1/5 8/1/8
f 3/1/1 7/1/5 4/1/4
f 7/1/5 3/1/1 8/1/8
f 11/3/9 10/4/10 9/4/11
f 10/4/10 11/3/9 12/3/12
f 11/3/9 13/3/13 12/3/12
f 13/3/13 11/3/9 14/3/14
f 13/3/13 16/4/15 15/4/16
f 16/4/15 13/3/13 14/3/14
f 6/2/6 2/2/2 5/2/7
f 2/2/2 6/2/6 1/2/3
f 16/4/15 10/4/10 15/4/16
f 10/4/10 16/4/15 9/4/11
f 1/2/3 16/4/15 3/1/1
f 16/4/15 1/2/3 6/2/6
f 14/3/14 3/1/1 16/4/15
f 16/4/15 6/2/6 9/4/11
f 3/1/1 14/3/14 8/1/8
f 9/4/11 6/2/6 11/3/9
f 8/1/8 14/3/14 11/3/9
f 8/1/8 11/3/9 6/2/6
f 4/1/4 13/3/13 2/2/2
f 13/3/13 4/1/4 7/1/5
f 15/4/16 2/2/2 13/3/13
f 13/3/13 7/1/5 12/3/12
f 2/2/2 15/4/16 5/2/7
f 5/2/7 12/3/12 7/1/5
f 5/2/7 15/4/16 10/4/10
f 5/2/7 10/4/10 12/3/12
